# xmcd
#
# Track frame offsets:
#	150
#	21374
#	40281
#	54700
#	68774
#	84812
#	99362
#	114311
#	136916
#	160724
#	181073
#	196492
#	207659
#
# Disc length: 2979 seconds
# Revision: 2
# Processed by: cddbd v1.5.2PL0 Copyright (c) Steve Scherf et al.
# Submitted via: dBpowerAMP V12.0
#
DISCID=a90ba10d
DTITLE=Jim Lauderdale - Patchwork River
DYEAR=2010
DGENRE=Country
TTITLE0=Patchwork River
TTITLE1=Jawbone
TTITLE2=Good Together
TTITLE3=Alligator Alley
TTITLE4=Louisville Roll
TTITLE5=Tall Eyes
TTITLE6=Turn to Stone
TTITLE7=El Dorado
TTITLE8=Up My Sleeve
TTITLE9=Far in the Far Away
TTITLE10=Between Your Heart and Mine
TTITLE11=Winnona
TTITLE12=My Lips Are Sealed
EXTD=
EXTT0=
EXTT1=
EXTT2=
EXTT3=
EXTT4=
EXTT5=
EXTT6=
EXTT7=
EXTT8=
EXTT9=
EXTT10=
EXTT11=
EXTT12=
PLAYORDER=
